<?xml version="1.0" encoding="utf-8"?>
<!-- Generator: Adobe Illustrator 24.3.0, SVG Export Plug-In . SVG Version: 6.00 Build 0)  -->
<svg version="1.1" id="레이어_1" xmlns="http://www.w3.org/2000/svg" xmlns:xlink="http://www.w3.org/1999/xlink" x="0px"
	 y="0px" viewBox="0 0 100 80" style="enable-background:new 0 0 100 80;" xml:space="preserve">
<style type="text/css">
	.st0{fill:#232A4F;}
</style>
<g>
	<polygon class="st0" points="38.47,18.05 24.06,35.47 27.86,39.66 42.28,22.24 	"/>
</g>
<rect x="30.96" y="38.18" class="st0" width="23.95" height="4.69"/>
<g>
	<polygon class="st0" points="60.05,36.24 39.02,18.89 34.55,23 55.58,40.35 	"/>
</g>
<rect x="31.66" y="44.27" class="st0" width="23.6" height="4.6"/>
<rect x="26.27" y="50.48" transform="matrix(-1.836970e-16 1 -1 -1.836970e-16 87.1389 18.8847)" class="st0" width="15.71" height="5.06"/>
<g>
	<polygon class="st0" points="62.38,28.08 50.45,39.99 53.18,43.22 65.11,31.32 	"/>
</g>
<g>
	<polygon class="st0" points="75.45,39.55 62.73,28.23 59.72,30.51 72.44,41.83 	"/>
</g>
<rect x="69.66" y="25.87" class="st0" width="4" height="12"/>
<rect x="54.63" y="42.18" class="st0" width="4.7" height="12.35"/>
<rect x="67.23" y="41.87" class="st0" width="4.84" height="12.73"/>
<polygon class="st0" points="66.68,58.68 63.64,62.31 54.32,54.34 57.35,50.71 "/>
<polygon class="st0" points="63.76,62.87 60.33,59.41 69.23,50.41 72.66,53.87 "/>
</svg>
