<?xml version="1.0" encoding="utf-8"?>
<!-- Generator: Adobe Illustrator 25.1.0, SVG Export Plug-In . SVG Version: 6.00 Build 0)  -->
<svg version="1.1" id="레이어_1" xmlns="http://www.w3.org/2000/svg" xmlns:xlink="http://www.w3.org/1999/xlink" x="0px"
	 y="0px" viewBox="0 0 60 30" style="enable-background:new 0 0 60 30;" xml:space="preserve">
<style type="text/css">
	.st0{fill:#FFFFFF;}
	.st1{fill:#232A4F;}
	.st2{font-family:'NotoSansKR-Black-KSCpc-EUC-H';}
	.st3{font-size:8px;}
	.st4{letter-spacing:-1;}
	.st5{font-size:6px;}
	.st6{font-size:10px;}
	.st7{font-size:6.7567px;}
	.st8{font-family:'NotoSansKR-Bold-KSCpc-EUC-H';}
	.st9{font-size:3.6509px;}
	.st10{letter-spacing:1;}
	.st11{fill:#FFD983;}
	.st12{fill:none;stroke:#FFFFFF;stroke-width:3;stroke-miterlimit:10;}
	.st13{fill:none;stroke:#FFFFFF;stroke-miterlimit:10;}
</style>
<path class="st0" d="M33,6c-0.46-3.87-3.54-6.79-7-7c-4.09-0.25-7.99,3.31-8,8c-2.29,0.86-4.38,0.24-5-1c-0.09-0.19-0.39-0.88,0-2"
	/>
<text transform="matrix(1 0 0 1 29.6577 11.8921)"><tspan x="0" y="0" class="st1 st2 st3 st4">K</tspan><tspan x="4.62" y="0" class="st1 st2 st5">ICK</tspan><tspan x="0" y="7" class="st1 st2 st6 st4">S</tspan><tspan x="5.09" y="7" class="st1 st2 st7">TART</tspan></text>
<text transform="matrix(1 0 0 1 29.6851 23.1738)" class="st8 st9 st10">킥스타터</text>
<path class="st1" d="M25.75,6H11.25C10.56,6,10,6.56,10,7.25v11.7l5.66-4.92l6.44,7.4L20.3,23h5.45c0.69,0,1.25-0.56,1.25-1.25V7.25
	C27,6.56,26.44,6,25.75,6z"/>
<path class="st11" d="M16.66,14.03L11,18.95v2.8c0,0.69,0.56,1.25,1.25,1.25h9.04l1.8-1.57L16.66,14.03z"/>
<path class="st12" d="M12.02,3.61c0.62,1.49,2.46,6.44,0.8,12.5c-1.75,6.36-6.2,9.73-7.48,10.63"/>
<path class="st13" d="M41.28,1.68c-0.2,1.43-1,6.05-4.43,9.85c-3.59,3.98-7.7,4.4-8.85,4.48"/>
<path class="st12" d="M12.77,12.31c1.44,0.74,6.04,3.34,8.67,9.05c2.76,5.99,1.53,11.44,1.14,12.95"/>
<path class="st12" d="M27.34,5.73c-0.45,0.92-2.04,3.86-5.55,5.61c-3.68,1.83-7.05,1.13-7.99,0.9"/>
</svg>
